<svg id="Groupe_39" data-name="Groupe 39" xmlns="http://www.w3.org/2000/svg" width="41.078" height="48.91" viewBox="0 0 41.078 48.91">
  <path id="Tracé_1" data-name="Tracé 1" d="M1.37,20.691S2.077,29.372,8.8,33.569a21.585,21.585,0,0,0,18.3,2.366c5.064-1.537,8.473-6.11,9.6-8.221a15.882,15.882,0,0,0,1.508-6.53l-.4.112a28.342,28.342,0,0,1-7.881,3.557,40.114,40.114,0,0,1-2.186,3.378h-.845l-.206.4s-1,3.227-2.055,4.361l-10.86-.15a8.816,8.816,0,0,1-2.6-4.919l-.354-.514-1.572-.79-1.4-2.611s-6.046-3.531-6.088-3.545a1.418,1.418,0,0,0-.257,0C1.435,20.464,1.37,20.691,1.37,20.691Z" transform="translate(0.778 11.621)" fill="#fff"/>
  <path id="Tracé_2" data-name="Tracé 2" d="M23.687,7.273a12.471,12.471,0,0,0-5.4-1.34,16.278,16.278,0,0,0-3.764.545,12.693,12.693,0,0,0-7.5,4.911,11.84,11.84,0,0,0-2.255,6.971,6.713,6.713,0,0,0,1.935,4.965c2.928,2.949,8.573,3.568,12.793,3.568,2.746,0,11.734-.467,12.084-6.473A14.351,14.351,0,0,0,23.687,7.273Z" transform="translate(2.712 3.371)" fill="#000072"/>
  <path id="Tracé_3" data-name="Tracé 3" d="M21.344,3.889c-2.983,0-6.415,1.343-9.663,3.781A27.191,27.191,0,0,0,4.041,16.6,22.293,22.293,0,0,0,1.5,29.432,48,48,0,0,0,7.84,33.419a.1.1,0,0,1,.04.039l1.5,2.6,1.721.915c.15-.71.761-3.448,1.327-3.825.651-.434,10.575-.345,11.931.107s2.351,3.728,2.509,4.286h.841c.207-.224,1.4-2.138,2.133-3.329a.1.1,0,0,1,.063-.046,27.484,27.484,0,0,0,8.283-3.837A28.919,28.919,0,0,0,30.5,9.146C27.451,5.9,23.945,3.889,21.344,3.889Zm12.38,17.706c-.36,6.186-9.5,6.667-12.289,6.667-4.259,0-9.961-.629-12.938-3.629A6.911,6.911,0,0,1,6.5,19.521,12.041,12.041,0,0,1,8.8,12.432a12.9,12.9,0,0,1,7.616-4.991,12.473,12.473,0,0,1,9.3.809A14.145,14.145,0,0,1,31.633,13.7,13.827,13.827,0,0,1,33.723,21.594Z" transform="translate(0.778 2.209)" fill="#fff"/>
  <path id="Tracé_4" data-name="Tracé 4" d="M10.193,31.606l0,0,.006,0c.275.318,10.66.5,10.664.489l0,0v0a15.957,15.957,0,0,0,2.223-5.025c-.088-.315-1.084-3.761-2.39-4.2a36.843,36.843,0,0,0-6.2-.382,29.311,29.311,0,0,0-5.55.251c-.458.306-1.066,2.848-1.265,3.817C7.729,29.38,10.168,31.584,10.193,31.606Z" transform="translate(4.366 12.779)" fill="#cefe00"/>
  <g id="Groupe_1" data-name="Groupe 1" transform="translate(2.344 31.968)" opacity="0.25">
    <path id="Tracé_5" data-name="Tracé 5" d="M8.316,27.647c.053.066,2.826,1.275,2.826,1.275h0A5.5,5.5,0,0,1,11,27.816L9.182,26.85a.1.1,0,0,1-.041-.039l-1.5-2.6c-.311-.168-4.262-2.578-6.151-3.827A10.238,10.238,0,0,0,1.652,22s4.519,2.42,5.234,2.857S8.263,27.581,8.316,27.647Z" transform="translate(-1.495 -20.386)" fill="#00116b"/>
  </g>
  <g id="Groupe_2" data-name="Groupe 2" transform="translate(27.37 32.712)" opacity="0.25">
    <path id="Tracé_6" data-name="Tracé 6" d="M19.546,28.666c.053-.066,1.407-2.909,2.186-3.219.8-.319,6.872-2.79,7.291-2.959.207-.643-.036-1.353.043-1.628-1.555.913-5.547,3.2-8.212,3.851C18.778,28.1,18.672,28.1,18.6,28.1h-.873c-.079.34-.173.672-.276.994h0S19.493,28.732,19.546,28.666Z" transform="translate(-17.454 -20.861)" fill="#00116b"/>
  </g>
  <g id="Groupe_3" data-name="Groupe 3" transform="translate(12.833 39.442)" opacity="0.25">
    <path id="Tracé_7" data-name="Tracé 7" d="M10.291,29.6c.581.732,1.483.537,2.412.64l2.374-.025,3.021.105c.963-.031,1.693.2,2.176-.635.207-.358.423-.7.575-1.013a10.527,10.527,0,0,0,1.179-3.519,8.958,8.958,0,0,1-2.727,3.36,6.778,6.778,0,0,1-4.195.945,7.682,7.682,0,0,1-4.21-1.126,8.987,8.987,0,0,1-2.712-3.179,9.224,9.224,0,0,0,1.46,3.519A9.525,9.525,0,0,0,10.291,29.6Z" transform="translate(-8.183 -25.152)" fill="#00116b"/>
  </g>
  <g id="Groupe_4" data-name="Groupe 4" transform="translate(3.032 29.65)" opacity="0.25">
    <path id="Tracé_8" data-name="Tracé 8" d="M29.128,24.679l7.709-3.6c.027-.561-.056-2.175-.056-2.175a31.706,31.706,0,0,1-5.113,2.678l-.073-.907a.592.592,0,0,0-.92-.441c-4.452,2.95-11.106,2.845-11.106,2.845s-6.653.105-11.105-2.845a.591.591,0,0,0-.92.441l-.074.907a31.708,31.708,0,0,1-5.113-2.678,3.944,3.944,0,0,0-.424,1.455l6.279,3.661,1.338,2.782,1.438.7h0c.264-1.084.7-2.618,1.115-2.894.651-.434,10.575-.345,11.931.107,1.063.355,1.893,2.407,2.285,3.568l.882-.112Z" transform="translate(-1.933 -18.908)" fill="#000072"/>
  </g>
  <g id="Groupe_5" data-name="Groupe 5" transform="translate(5.104 37.109)" opacity="0.4">
    <path id="Tracé_9" data-name="Tracé 9" d="M3.836,24.353c.2.125,1.4.434,1.454.5a22.631,22.631,0,0,0,1.641,2.323s-1.184-2.659-1.246-2.732a21.781,21.781,0,0,0-2.43-.779A2.565,2.565,0,0,0,3.836,24.353Z" transform="translate(-3.255 -23.664)" fill="#fff"/>
  </g>
  <g id="Groupe_6" data-name="Groupe 6" transform="translate(31.577 37.109)" opacity="0.4">
    <path id="Tracé_10" data-name="Tracé 10" d="M21.778,24.855c.052-.069,1.257-.378,1.454-.5a2.563,2.563,0,0,0,.582-.686,21.776,21.776,0,0,0-2.43.779c-.062.073-1.246,2.732-1.246,2.732A22.627,22.627,0,0,0,21.778,24.855Z" transform="translate(-20.137 -23.664)" fill="#fff"/>
  </g>
  <g id="Groupe_7" data-name="Groupe 7" transform="translate(12.223 35.274)" opacity="0.4">
    <path id="Tracé_11" data-name="Tracé 11" d="M22.642,25.891a15.81,15.81,0,0,0-1.562-2.76,2.428,2.428,0,0,0-.243-.361.317.317,0,0,0-.028-.022,12.191,12.191,0,0,0-2.753-.229c-.851-.014-1.769-.02-2.559-.023H15.26l-.411,0-.411,0H14.2c-.79,0-1.707.01-2.559.023a12.193,12.193,0,0,0-2.753.229.331.331,0,0,0-.028.022,2.433,2.433,0,0,0-.243.361,15.475,15.475,0,0,0-.822,2.658.648.648,0,0,0,.032.231s1.431-2.672,1.53-2.722c.056-.028,2.215-.024,4.1-.016V23.3s6.516.036,6.968.367a23.519,23.519,0,0,1,2.373,3C22.821,26.607,22.642,25.987,22.642,25.891Z" transform="translate(-7.795 -22.494)" fill="#fff"/>
  </g>
  <g id="Groupe_8" data-name="Groupe 8" transform="translate(16.069 35.272)" opacity="0.25">
    <path id="Tracé_12" data-name="Tracé 12" d="M10.247,22.518c.851-.014,1.769-.02,2.559-.023C11.875,22.49,11,22.5,10.247,22.518Z" transform="translate(-10.247 -22.493)" fill="#00116b"/>
  </g>
  <g id="Groupe_9" data-name="Groupe 9" transform="translate(16.069 35.272)" opacity="0.4">
    <path id="Tracé_13" data-name="Tracé 13" d="M10.247,22.518c.851-.014,1.769-.02,2.559-.023C11.875,22.49,11,22.5,10.247,22.518Z" transform="translate(-10.247 -22.493)" fill="#fff"/>
  </g>
  <g id="Groupe_10" data-name="Groupe 10" transform="translate(6.773 20.72)" opacity="0.4">
    <path id="Tracé_14" data-name="Tracé 14" d="M4.606,13.213A6.47,6.47,0,0,0,6.327,19.8c3.046,3,7.032,4.085,14.166,3.914s10.1-1.922,11.472-4.508,0-5.934,0-5.934,1.3,4.956-3.107,7.545-12.787,2.737-18.523.6S4.819,14.645,4.606,13.213Z" transform="translate(-4.319 -13.213)" fill="#fff"/>
  </g>
  <path id="Tracé_15" data-name="Tracé 15" d="M11.958,12.585c.183-1.609-.366-2.992-1.228-3.09s-1.708,1.126-1.892,2.735.366,2.992,1.227,3.09S11.774,14.193,11.958,12.585Z" transform="translate(5.001 5.391)" fill="#cefe00"/>
  <path id="Tracé_16" data-name="Tracé 16" d="M19.3,13.168c.183-1.608-.366-2.992-1.227-3.09s-1.708,1.126-1.892,2.735.366,2.992,1.228,3.09S19.12,14.776,19.3,13.168Z" transform="translate(9.174 5.722)" fill="#cefe00"/>
  <g id="Groupe_11" data-name="Groupe 11" transform="translate(11.76 40.729)" opacity="0.4">
    <path id="Tracé_17" data-name="Tracé 17" d="M7.5,25.973s1.565,4.155,2.432,4.412S21.42,30.7,21.42,30.7a8.988,8.988,0,0,0,1.548-3.587s-1.912,2.716-2.04,2.737-10.636-.142-10.636-.142Z" transform="translate(-7.5 -25.973)" fill="#fff"/>
  </g>
  <g id="Groupe_12" data-name="Groupe 12" transform="translate(3.472 36.936)" opacity="0.25">
    <path id="Tracé_18" data-name="Tracé 18" d="M2.214,23.554S7.99,33.708,19.366,33.708a21.663,21.663,0,0,0,17.225-8.85S33.439,35.179,20.268,35.179,3.2,26.794,2.214,23.727" transform="translate(-2.214 -23.554)" fill="#000072"/>
  </g>
  <path id="Tracé_19" data-name="Tracé 19" d="M27.9,38.124h-.954a.326.326,0,0,1-.314-.241c-.382-1.41-1.332-3.761-2.252-4.068-1.4-.468-10.808-.46-11.566-.151a12.29,12.29,0,0,0-1.165,3.683.326.326,0,0,1-.472.222l-1.868-.994a.326.326,0,0,1-.129-.125L7.715,33.908a45.057,45.057,0,0,1-6.37-4.031.325.325,0,0,1-.1-.182A22.225,22.225,0,0,1,3.821,16.559a27.625,27.625,0,0,1,7.762-9.077c3.321-2.494,6.844-3.867,9.92-3.867,2.756,0,6.294,2.016,9.464,5.393a29.485,29.485,0,0,1,5.819,9.229A28.319,28.319,0,0,1,38.769,30.56a.325.325,0,0,1-.135.244,27.557,27.557,0,0,1-8.34,3.9c-.16.26-.567.922-.98,1.578C28.154,38.124,28.12,38.124,27.9,38.124Zm-.708-.652h.565c.3-.407,1.343-2.066,2.05-3.222a.326.326,0,0,1,.2-.147,27.186,27.186,0,0,0,8.119-3.742A28.7,28.7,0,0,0,30.492,9.454c-3-3.2-6.448-5.187-8.989-5.187-2.936,0-6.32,1.327-9.529,3.736A26.963,26.963,0,0,0,4.4,16.861,22.209,22.209,0,0,0,1.872,29.475a49.246,49.246,0,0,0,6.234,3.9.326.326,0,0,1,.128.124L9.7,36.044l1.4.746c.247-1.121.789-3.294,1.359-3.675.489-.326,4.212-.334,5.791-.323a35.838,35.838,0,0,1,6.335.4C25.967,33.658,26.921,36.555,27.192,37.472Z" transform="translate(0.618 2.054)" fill="#000072"/>
  <path id="Tracé_20" data-name="Tracé 20" d="M20.351,30.809c-4.275,0-10.017-.153-10.079-.154a.327.327,0,0,1-.208-.082,8.225,8.225,0,0,1-2.652-5.365.326.326,0,0,1,.321-.33h0a.326.326,0,0,1,.326.321,7.575,7.575,0,0,0,2.35,4.808c.914.024,6.651.165,10.623.15a13.163,13.163,0,0,0,2-4.508.326.326,0,0,1,.636.143,13.4,13.4,0,0,1-2.214,4.891.326.326,0,0,1-.255.125Z" transform="translate(4.211 14.133)" fill="#cefe00"/>
  <path id="Tracé_21" data-name="Tracé 21" d="M19.657,27.475c-4.3,0-10.066-.641-13.1-3.694a7.127,7.127,0,0,1-2.06-5.27,12.26,12.26,0,0,1,2.336-7.218,13.122,13.122,0,0,1,7.748-5.078,12.663,12.663,0,0,1,9.44.824,14.371,14.371,0,0,1,6.021,5.538A14.053,14.053,0,0,1,32.168,20.6c-.149,2.554-1.733,4.443-4.71,5.616A22.671,22.671,0,0,1,19.657,27.475ZM14.729,6.85a12.47,12.47,0,0,0-7.364,4.824,11.621,11.621,0,0,0-2.213,6.842,6.5,6.5,0,0,0,1.871,4.806c2.874,2.894,8.457,3.5,12.635,3.5,2.7,0,11.522-.452,11.861-6.263a14.116,14.116,0,0,0-7.77-12.932A11.966,11.966,0,0,0,14.729,6.85Z" transform="translate(2.556 3.218)" fill="#000072"/>
  <path id="Tracé_22" data-name="Tracé 22" d="M19.9,37.547A19.3,19.3,0,0,1,6.216,32.192a16.56,16.56,0,0,1-4.291-7.6,20.7,20.7,0,0,1-.739-4.253.326.326,0,0,1,.651-.027c0,.072.35,7.19,4.825,11.4,5.133,4.831,11.8,6.289,19.815,4.333C33.628,34.306,38.059,27,38.063,21.229a.326.326,0,0,1,.326-.326h0a.326.326,0,0,1,.326.326,16.374,16.374,0,0,1-3.285,9.377,15.668,15.668,0,0,1-8.8,6.078A28.426,28.426,0,0,1,19.9,37.547Z" transform="translate(0.674 11.364)" fill="#000072"/>
  <path id="Tracé_23" data-name="Tracé 23" d="M22.978,4.076a1.759,1.759,0,0,0,0-1.408,3.069,3.069,0,0,0-1.761-1.528,1.912,1.912,0,0,0-1.579.345A12.635,12.635,0,0,1,22.978,4.076Z" transform="translate(11.16 0.613)" fill="#cefe00"/>
  <path id="Tracé_24" data-name="Tracé 24" d="M5.475,11.62A10.83,10.83,0,0,1,8.33,9.863,13.69,13.69,0,0,1,13.8,8.756a15.58,15.58,0,0,1,2.771.253c4.452.8,9.78,3.445,13.81,5.96a29.072,29.072,0,0,0-13.359-9.6,29.032,29.032,0,0,0-7.6-1.69h0c-.046,0-4.625-.257-5.567,2.212A5.206,5.206,0,0,0,5.475,11.62Z" transform="translate(2.007 2.083)" fill="#535580"/>
  <path id="Tracé_25" data-name="Tracé 25" d="M21.584,6.916c.26,2.631-1.724,5.445-2.085,5.933a27.531,27.531,0,0,1,3.833,4.232,37.427,37.427,0,0,1,4.45,3.246A17.01,17.01,0,0,0,26.464,7.465a13.318,13.318,0,0,0-1.9-2.78.1.1,0,0,1-.031-.035,12.455,12.455,0,0,0-3.489-2.708.1.1,0,0,1-.058-.031,15.205,15.205,0,0,0-4.2-1.422C18.164,1.216,21.154,3.206,21.584,6.916Z" transform="translate(9.54 0.278)" fill="#535580"/>
  <path id="Tracé_26" data-name="Tracé 26" d="M24.676,12.912c.369-.507,2.282-3.277,2.036-5.774C26.189,2.625,21.762.718,21.39.566A21.584,21.584,0,0,0,15.8.51a10.235,10.235,0,0,0-3.22.915A16.482,16.482,0,0,0,7.428,5.489,30.139,30.139,0,0,1,14.88,7.175,30.227,30.227,0,0,1,24.676,12.912Z" transform="translate(4.22 0.202)" fill="#cefe00"/>
  <g id="Groupe_13" data-name="Groupe 13" transform="translate(6.948 7.25)" opacity="0.25">
    <path id="Tracé_27" data-name="Tracé 27" d="M5.258,5.488c-1.819,1.984-.144,4.423.362,5.069A11.96,11.96,0,0,1,7.82,9.32a13.69,13.69,0,0,1,5.468-1.107,15.58,15.58,0,0,1,2.771.253,37.736,37.736,0,0,1,10.414,3.993c.648.34,1.006.552,1.006.552C20.413,5.432,7.374,3.179,5.258,5.488Z" transform="translate(-4.431 -4.624)" fill="#000072"/>
  </g>
  <g id="Groupe_14" data-name="Groupe 14" transform="translate(12.501 2.18)" opacity="0.25">
    <path id="Tracé_28" data-name="Tracé 28" d="M22.082,1.39c0,1.775-3.285,4.822-7.126,3.841S11.38,2.106,11.38,2.106a11.716,11.716,0,0,0-3.408,2.76h0a31.473,31.473,0,0,1,6.588,1.6,30.386,30.386,0,0,1,9.154,5.187A8.5,8.5,0,0,0,25.467,6.9,6.887,6.887,0,0,0,22.082,1.39Z" transform="translate(-7.972 -1.39)" fill="#000072"/>
  </g>
  <g id="Groupe_15" data-name="Groupe 15" transform="translate(29.039 8.89)" opacity="0.25">
    <path id="Tracé_29" data-name="Tracé 29" d="M26.449,9.769s-.662.476-2.682-.425S20.62,5.675,20.62,5.675c-.033-.029-.092.048-.164.181a12.038,12.038,0,0,1-1.938,4.049,27.516,27.516,0,0,1,3.833,4.233,42.153,42.153,0,0,1,3.828,2.719A14.761,14.761,0,0,0,26.449,9.769Z" transform="translate(-18.518 -5.669)" fill="#000072"/>
  </g>
  <g id="Groupe_16" data-name="Groupe 16" transform="translate(31.549 2.468)" opacity="0.25">
    <path id="Tracé_30" data-name="Tracé 30" d="M22.468,2.864A3.238,3.238,0,0,0,21,1.667a1.268,1.268,0,0,0-.878-.027,12.567,12.567,0,0,1,2.338,1.89A1.117,1.117,0,0,0,22.468,2.864Z" transform="translate(-20.119 -1.574)" fill="#00116b"/>
  </g>
  <g id="Groupe_17" data-name="Groupe 17" transform="translate(5.54 5.75)" opacity="0.4">
    <path id="Tracé_31" data-name="Tracé 31" d="M6.391,4.574c2.86-.958,13.241,1.134,18.637,5.088a30.438,30.438,0,0,0-8.008-4.3,29.034,29.034,0,0,0-7.6-1.69h0c-.046,0-4.625-.257-5.567,2.212A4.709,4.709,0,0,0,3.94,9.5C3.883,8.5,3.916,5.4,6.391,4.574Z" transform="translate(-3.533 -3.667)" fill="#fff"/>
  </g>
  <g id="Groupe_18" data-name="Groupe 18" transform="translate(26.332 0.767)" opacity="0.4">
    <path id="Tracé_32" data-name="Tracé 32" d="M25.336,6.644a26.338,26.338,0,0,1,2.872,5.944,18.082,18.082,0,0,0-1.745-5.124,13.319,13.319,0,0,0-1.9-2.78.1.1,0,0,1-.031-.035,12.455,12.455,0,0,0-3.489-2.708.1.1,0,0,1-.058-.031,15.206,15.206,0,0,0-4.2-1.422A10.851,10.851,0,0,1,18.58,1.68C19.2,1.915,23.306,3.566,25.336,6.644Z" transform="translate(-16.792 -0.489)" fill="#fff"/>
  </g>
  <path id="Tracé_33" data-name="Tracé 33" d="M35.515,21.108a.326.326,0,0,1-.219-.084c-2.494-2.259-11.4-8.2-18.648-9.511a13.755,13.755,0,0,0-7.963.814A10.242,10.242,0,0,0,5.86,14.076a.326.326,0,0,1-.442.011A5.644,5.644,0,0,1,3.606,7.818C4.56,5.317,8.537,5.3,9.429,5.323a16.674,16.674,0,0,1,5.327-4.206A10.662,10.662,0,0,1,18.11.162a19.9,19.9,0,0,1,9.054.9,13.139,13.139,0,0,1,7.37,6.487,18.164,18.164,0,0,1,2.042,9.374,13.811,13.811,0,0,1-.758,3.983.325.325,0,0,1-.3.205ZM13.954,10.616a15.8,15.8,0,0,1,2.81.256c6.637,1.2,15.208,6.454,18.6,9.342a14.78,14.78,0,0,0,.565-3.36,17.518,17.518,0,0,0-1.973-9.01C30.051.264,21.627.4,18.187.809a10.014,10.014,0,0,0-3.15.9,16.2,16.2,0,0,0-5.2,4.15.325.325,0,0,1-.278.126c-.045,0-4.462-.246-5.345,2.069A4.944,4.944,0,0,0,5.636,13.4,11.507,11.507,0,0,1,8.4,11.742,13.913,13.913,0,0,1,13.954,10.616Z" transform="translate(1.851 0)" fill="#000072"/>
  <path id="Tracé_34" data-name="Tracé 34" d="M28.79,15.847a.326.326,0,0,1-.263-.134,28.762,28.762,0,0,0-13.585-9.98A28.843,28.843,0,0,0,7.393,4.05.326.326,0,0,1,7.422,3.4,28.9,28.9,0,0,1,15.14,5.112,29.414,29.414,0,0,1,29.053,15.329a.326.326,0,0,1-.263.518Z" transform="translate(4.023 1.931)" fill="#000072"/>
  <path id="Tracé_35" data-name="Tracé 35" d="M19.743,13.384a.326.326,0,0,1-.258-.525c.023-.03,2.314-3.041,2.052-5.7-.526-4.544-5.157-6.378-5.2-6.4a.326.326,0,0,1,.233-.608,10.186,10.186,0,0,1,2.589,1.584,8.132,8.132,0,0,1,3.03,5.35c.288,2.922-2.082,6.035-2.183,6.166A.325.325,0,0,1,19.743,13.384Z" transform="translate(9.16 0.077)" fill="#000072"/>
  <path id="Tracé_36" data-name="Tracé 36" d="M23.2,4.749a.326.326,0,0,1-.292-.47,1.575,1.575,0,0,0,.063-1.367,2.826,2.826,0,0,0-1.623-1.4,1.834,1.834,0,0,0-1.5.4.326.326,0,0,1-.424-.495A2.448,2.448,0,0,1,21.54.887a3.467,3.467,0,0,1,2.027,1.768,2.229,2.229,0,0,1-.078,1.911A.326.326,0,0,1,23.2,4.749Z" transform="translate(10.969 0.457)" fill="#000072"/>
  <path id="Tracé_37" data-name="Tracé 37" d="M12.68,12.691l2.226.142a.494.494,0,0,1,.427.679c-.251.6-.759,1.416-1.678,1.375s-1.323-.937-1.487-1.582A.494.494,0,0,1,12.68,12.691Z" transform="translate(6.904 7.209)" fill="#cefe00"/>
  <path id="Tracé_38" data-name="Tracé 38" d="M22.4,15.028H9.366A2.48,2.48,0,0,0,6.889,17.5v16.06a2.48,2.48,0,0,0,2.477,2.477H22.4a2.48,2.48,0,0,0,2.477-2.477V17.5A2.48,2.48,0,0,0,22.4,15.028Z" transform="translate(3.914 8.537)" fill="#cefe00"/>
  <g id="Groupe_19" data-name="Groupe 19" transform="translate(11.797 30.663)" opacity="0.25">
    <path id="Tracé_39" data-name="Tracé 39" d="M21.895,28.3a2.757,2.757,0,0,1-2.374,1.429h-8A2.757,2.757,0,0,1,9.149,28.3c-.673-1.429-.925-6.867-1.626-8.745V30.989s.42,1.541,1.457,1.541H22.063c1.037,0,1.457-1.541,1.457-1.541V19.554C22.819,21.432,22.567,26.869,21.895,28.3Z" transform="translate(-7.523 -19.554)" fill="#000072"/>
  </g>
  <g id="Groupe_20" data-name="Groupe 20" transform="translate(10.802 23.565)" opacity="0.4">
    <path id="Tracé_40" data-name="Tracé 40" d="M22.4,15.028H9.366A2.48,2.48,0,0,0,6.889,17.5v6.234l.224-.337s.687-6.208.687-6.306a2.4,2.4,0,0,1,1.962-1.275H22a2.4,2.4,0,0,1,1.962,1.275c0,.1.687,6.306.687,6.306l.224.337V17.5A2.48,2.48,0,0,0,22.4,15.028Z" transform="translate(-6.889 -15.028)" fill="#fff"/>
  </g>
  <path id="Tracé_41" data-name="Tracé 41" d="M12.93,17.6h1.925s.308-.549.058-.751a2.7,2.7,0,0,0-.851-.289c-.094-.046-.316-.715-.725-.748s-.56.054-.612.116a3.446,3.446,0,0,0-.19.478s-.646.187-.73.24a1.339,1.339,0,0,0-.25.538,1.047,1.047,0,0,0,.138.248,2.184,2.184,0,0,0,.382.167Z" transform="translate(6.563 8.979)" fill="#535580"/>
  <path id="Tracé_42" data-name="Tracé 42" d="M22.556,36.633H9.523a2.915,2.915,0,0,1-2.911-2.911V17.662a2.915,2.915,0,0,1,2.911-2.911H22.556a2.915,2.915,0,0,1,2.911,2.911v16.06A2.915,2.915,0,0,1,22.556,36.633ZM9.523,15.4a2.262,2.262,0,0,0-2.26,2.26v16.06a2.262,2.262,0,0,0,2.26,2.26H22.556a2.262,2.262,0,0,0,2.26-2.26V17.662a2.262,2.262,0,0,0-2.26-2.26Z" transform="translate(3.756 8.38)" fill="#000072"/>
  <path id="Tracé_43" data-name="Tracé 43" d="M14.51,18.079H12.191a.846.846,0,0,1,0-1.692h.149a1.025,1.025,0,0,1,2.021,0h.149a.846.846,0,0,1,0,1.692Zm-2.319-1.04a.194.194,0,1,0,0,.388H14.51a.194.194,0,1,0,0-.388h-.478a.326.326,0,0,1-.318-.4.373.373,0,1,0-.737-.082.363.363,0,0,0,.01.082.326.326,0,0,1-.318.4Z" transform="translate(6.445 8.825)" fill="#000072"/>
  <path id="Tracé_44" data-name="Tracé 44" d="M2.22,19.536a4.388,4.388,0,0,1-.528-1.654A6.382,6.382,0,0,0,.315,21.147,5.971,5.971,0,0,1,2.22,19.536Z" transform="translate(0.179 10.159)" fill="#fff"/>
  <path id="Tracé_45" data-name="Tracé 45" d="M6.26,21.965a7.351,7.351,0,0,0,.645,5.044A1.8,1.8,0,0,0,9,26.764a4.118,4.118,0,0,0,.422-3.941C8.8,21.364,6.657,21.859,6.26,21.965Z" transform="translate(3.454 12.384)" fill="#535580"/>
  <path id="Tracé_46" data-name="Tracé 46" d="M9.121,23.227a.107.107,0,0,1,.01-.045,7.4,7.4,0,0,1,.2-.756,13.907,13.907,0,0,1-3.469-2.257,4.221,4.221,0,0,0-1.016-.726,2.889,2.889,0,0,0-1.512.433C3.233,19.958.858,21.823.725,24.3c0,0,0,.005,0,.008s0,0,0,.006a9.343,9.343,0,0,0,.436,3.116c0,.01.787,1.83,3.862,1.83h.134a10.95,10.95,0,0,0,4.59-.86A7.611,7.611,0,0,1,9.121,23.227Z" transform="translate(0.39 11.035)" fill="#fff"/>
  <path id="Tracé_47" data-name="Tracé 47" d="M3.317,20.007a3.152,3.152,0,0,1-.964-.951A6.212,6.212,0,0,0,.3,20.885,7.956,7.956,0,0,0,.781,24.07,7.2,7.2,0,0,1,3.317,20.007Z" transform="translate(0.16 10.826)" fill="#cefe00"/>
  <g id="Groupe_21" data-name="Groupe 21" transform="translate(9.649 35.333)" opacity="0.25">
    <path id="Tracé_48" data-name="Tracé 48" d="M9.668,24.458a4.774,4.774,0,0,0-.185-1.766l-.11-.16c-.165.762-2.526,2.461-3.22,2.054a6.446,6.446,0,0,0,.613,1.824A2.607,2.607,0,0,0,9.668,24.458Z" transform="translate(-6.153 -22.532)" fill="#00116b"/>
  </g>
  <g id="Groupe_22" data-name="Groupe 22" transform="translate(0.443 30.639)" opacity="0.25">
    <path id="Tracé_49" data-name="Tracé 49" d="M.3,20.611A7.956,7.956,0,0,0,.781,23.8a5.8,5.8,0,0,1,1.032-2.433,5.858,5.858,0,0,1-.554-1.824A7.583,7.583,0,0,0,.3,20.611Z" transform="translate(-0.282 -19.539)" fill="#000072"/>
  </g>
  <g id="Groupe_23" data-name="Groupe 23" transform="translate(0.493 28.685)" opacity="0.25">
    <path id="Tracé_50" data-name="Tracé 50" d="M1.236,18.293a6.352,6.352,0,0,0-.922,2.621,7.452,7.452,0,0,1,.9-.933A7.286,7.286,0,0,1,1.236,18.293Z" transform="translate(-0.315 -18.293)" fill="#000072"/>
  </g>
  <g id="Groupe_24" data-name="Groupe 24" transform="translate(1.078 34.798)" opacity="0.25">
    <path id="Tracé_51" data-name="Tracé 51" d="M5.153,27.185A10.043,10.043,0,0,0,9.417,26.13a7,7,0,0,1-.469-2.1,6.306,6.306,0,0,1,.076-1.84h0a6.08,6.08,0,0,1-3.808,2.377c-2.243.375-4.157-1-4.481-1.956,0,.04-.008.079-.01.119,0,0,0,.005,0,.008s0,0,0,.006a9.343,9.343,0,0,0,.436,3.116,2.526,2.526,0,0,0,.622.786A7.642,7.642,0,0,0,5.153,27.185Z" transform="translate(-0.687 -22.191)" fill="#000072"/>
  </g>
  <g id="Groupe_25" data-name="Groupe 25" transform="translate(2.358 30.458)" opacity="0.4">
    <path id="Tracé_52" data-name="Tracé 52" d="M3.963,20.181c.315.074,2.634,2.021,4.791,2.639.047-.177.089-.311.118-.4A13.907,13.907,0,0,1,5.4,20.168a4.221,4.221,0,0,0-1.016-.726,2.889,2.889,0,0,0-1.512.433,7.524,7.524,0,0,0-.746.686l-.624.793A12.215,12.215,0,0,1,3.963,20.181Z" transform="translate(-1.504 -19.423)" fill="#fff"/>
  </g>
  <g id="Groupe_26" data-name="Groupe 26" transform="translate(1.6 28.042)" opacity="0.4">
    <path id="Tracé_53" data-name="Tracé 53" d="M1.819,19.536a4.388,4.388,0,0,1-.528-1.654c-.1.12-.185.241-.27.363A4.849,4.849,0,0,0,1.4,19.767,3.737,3.737,0,0,1,1.819,19.536Z" transform="translate(-1.021 -17.882)" fill="#fff"/>
  </g>
  <g id="Groupe_27" data-name="Groupe 27" transform="translate(9.614 34.184)" opacity="0.4">
    <path id="Tracé_54" data-name="Tracé 54" d="M9.146,22.424c-.811-.958-2.56-.554-2.914-.459-.036.175-.072.371-.1.585A6.28,6.28,0,0,1,9.146,22.424Z" transform="translate(-6.131 -21.799)" fill="#fff"/>
  </g>
  <g id="Groupe_28" data-name="Groupe 28" transform="translate(9.767 34.106)" opacity="0.4">
    <path id="Tracé_55" data-name="Tracé 55" d="M6.234,21.755l0-.005,0,.006Z" transform="translate(-6.229 -21.75)" fill="#fff"/>
  </g>
  <g id="Groupe_29" data-name="Groupe 29" transform="translate(2.08 29.882)" opacity="0.4">
    <path id="Tracé_56" data-name="Tracé 56" d="M1.76,19.056a3.505,3.505,0,0,0-.433.243,2.927,2.927,0,0,0,.958,1.1h0c.184-.177.339-.31.44-.393A3.152,3.152,0,0,1,1.76,19.056Z" transform="translate(-1.327 -19.056)" fill="#fff"/>
  </g>
  <path id="Tracé_57" data-name="Tracé 57" d="M1.006,25.717a.326.326,0,0,1-.291-.18,7.956,7.956,0,0,1-.681-2.6,6.994,6.994,0,0,1,1.679-5.33.326.326,0,0,1,.573.212,3.417,3.417,0,0,0,1.543,2.771.326.326,0,0,1,.038.544c-.024.018-2.4,1.85-2.534,4.27a.326.326,0,0,1-.259.3A.321.321,0,0,1,1.006,25.717Zm.731-7.073A6.251,6.251,0,0,0,.681,22.857,7.785,7.785,0,0,0,.91,24.146a7.785,7.785,0,0,1,2.213-3.234A3.826,3.826,0,0,1,1.737,18.644Z" transform="translate(0 9.941)" fill="#000072"/>
  <path id="Tracé_58" data-name="Tracé 58" d="M.334,21.355a.326.326,0,0,1-.268-.511,6.536,6.536,0,0,1,2.351-2.056.326.326,0,1,1,.255.6A5.95,5.95,0,0,0,.6,21.214.325.325,0,0,1,.334,21.355Z" transform="translate(0.005 10.659)" fill="#000072"/>
  <path id="Tracé_59" data-name="Tracé 59" d="M5.174,29.855C1.8,29.855.945,27.831.91,27.744c0-.009-.007-.018-.01-.027A9.542,9.542,0,0,1,.452,24.4a.326.326,0,0,1,.641.116,8.978,8.978,0,0,0,.425,3c.071.157.838,1.693,3.655,1.693h.134a11.565,11.565,0,0,0,4.3-.744A7.988,7.988,0,0,1,9.224,22.7a14.514,14.514,0,0,1-3.338-2.211,4.993,4.993,0,0,0-.928-.682,2.567,2.567,0,0,0-1.358.413.326.326,0,0,1-.328-.563,3.18,3.18,0,0,1,1.837-.484A3.9,3.9,0,0,1,6.3,19.99a13.138,13.138,0,0,0,3.45,2.228.326.326,0,0,1,.183.421,7.454,7.454,0,0,0,.4,5.8.326.326,0,0,1-.114.439,10.4,10.4,0,0,1-4.9.972Z" transform="translate(0.233 10.878)" fill="#000072"/>
  <path id="Tracé_60" data-name="Tracé 60" d="M7.979,27.814A3.181,3.181,0,0,1,6.8,27.558a.326.326,0,0,1,.243-.6,1.623,1.623,0,0,0,1.892-.182,3.939,3.939,0,0,0,.377-3.7c-.6-1.418-2.937-.725-2.96-.717a.326.326,0,0,1-.191-.623c.119-.037,2.917-.872,3.751,1.085.547,1.283.472,3.412-.511,4.416A1.923,1.923,0,0,1,7.979,27.814Z" transform="translate(3.367 12.225)" fill="#000072"/>
  <path id="Tracé_61" data-name="Tracé 61" d="M24.667,19.536a4.388,4.388,0,0,0,.528-1.654,6.381,6.381,0,0,1,1.377,3.265A5.97,5.97,0,0,0,24.667,19.536Z" transform="translate(14.013 10.159)" fill="#fff"/>
  <path id="Tracé_62" data-name="Tracé 62" d="M21.257,21.965a7.351,7.351,0,0,1-.645,5.044,1.8,1.8,0,0,1-2.092-.245,4.118,4.118,0,0,1-.422-3.941C18.719,21.364,20.86,21.859,21.257,21.965Z" transform="translate(10.108 12.384)" fill="#535580"/>
  <path id="Tracé_63" data-name="Tracé 63" d="M20.357,23.227a.107.107,0,0,0-.01-.045,7.4,7.4,0,0,0-.2-.756,13.906,13.906,0,0,0,3.469-2.257,4.219,4.219,0,0,1,1.016-.726,2.889,2.889,0,0,1,1.512.433c.106.082,2.481,1.947,2.614,4.428,0,0,0,.005,0,.008s0,0,0,.006a9.343,9.343,0,0,1-.436,3.116c0,.01-.787,1.83-3.861,1.83h-.135a10.949,10.949,0,0,1-4.59-.86A7.611,7.611,0,0,0,20.357,23.227Z" transform="translate(11.211 11.035)" fill="#fff"/>
  <path id="Tracé_64" data-name="Tracé 64" d="M23.978,20.007a3.152,3.152,0,0,0,.964-.951A6.212,6.212,0,0,1,27,20.885a7.955,7.955,0,0,1-.485,3.185A7.2,7.2,0,0,0,23.978,20.007Z" transform="translate(13.622 10.826)" fill="#cefe00"/>
  <g id="Groupe_30" data-name="Groupe 30" transform="translate(27.9 35.333)" opacity="0.25">
    <path id="Tracé_65" data-name="Tracé 65" d="M17.807,24.458a4.774,4.774,0,0,1,.185-1.766l.11-.16c.165.762,2.526,2.461,3.22,2.054a6.446,6.446,0,0,1-.613,1.824A2.606,2.606,0,0,1,17.807,24.458Z" transform="translate(-17.792 -22.532)" fill="#00116b"/>
  </g>
  <g id="Groupe_31" data-name="Groupe 31" transform="translate(39.105 30.639)" opacity="0.25">
    <path id="Tracé_66" data-name="Tracé 66" d="M26.455,20.611a7.957,7.957,0,0,1-.486,3.185,5.8,5.8,0,0,0-1.032-2.433,5.858,5.858,0,0,0,.554-1.824A7.6,7.6,0,0,1,26.455,20.611Z" transform="translate(-24.937 -19.539)" fill="#000072"/>
  </g>
  <g id="Groupe_32" data-name="Groupe 32" transform="translate(39.664 28.685)" opacity="0.25">
    <path id="Tracé_67" data-name="Tracé 67" d="M25.294,18.293a6.352,6.352,0,0,1,.922,2.621,7.459,7.459,0,0,0-.9-.933A7.278,7.278,0,0,0,25.294,18.293Z" transform="translate(-25.294 -18.293)" fill="#000072"/>
  </g>
  <g id="Groupe_33" data-name="Groupe 33" transform="translate(31.272 34.798)" opacity="0.25">
    <path id="Tracé_68" data-name="Tracé 68" d="M24.206,27.185a10.044,10.044,0,0,1-4.264-1.055,7,7,0,0,0,.469-2.1,6.3,6.3,0,0,0-.076-1.84h0a6.08,6.08,0,0,0,3.808,2.377c2.243.375,4.157-1,4.481-1.956,0,.04.008.079.01.119,0,0,0,.005,0,.008s0,0,0,.006a9.342,9.342,0,0,1-.436,3.116,2.528,2.528,0,0,1-.622.786A7.643,7.643,0,0,1,24.206,27.185Z" transform="translate(-19.942 -22.191)" fill="#000072"/>
  </g>
  <g id="Groupe_34" data-name="Groupe 34" transform="translate(31.353 30.458)" opacity="0.4">
    <path id="Tracé_69" data-name="Tracé 69" d="M24.9,20.181c-.315.074-2.634,2.021-4.79,2.639-.047-.177-.089-.311-.118-.4a13.91,13.91,0,0,0,3.469-2.257,4.223,4.223,0,0,1,1.016-.726,2.888,2.888,0,0,1,1.512.433,7.521,7.521,0,0,1,.746.686l.624.793A12.214,12.214,0,0,0,24.9,20.181Z" transform="translate(-19.994 -19.423)" fill="#fff"/>
  </g>
  <g id="Groupe_35" data-name="Groupe 35" transform="translate(38.68 28.042)" opacity="0.4">
    <path id="Tracé_70" data-name="Tracé 70" d="M24.667,19.536a4.388,4.388,0,0,0,.528-1.654c.1.12.186.241.27.363a4.854,4.854,0,0,1-.384,1.522A3.732,3.732,0,0,0,24.667,19.536Z" transform="translate(-24.667 -17.882)" fill="#fff"/>
  </g>
  <g id="Groupe_36" data-name="Groupe 36" transform="translate(28.45 34.184)" opacity="0.4">
    <path id="Tracé_71" data-name="Tracé 71" d="M18.143,22.424c.811-.958,2.56-.554,2.915-.459.037.175.072.371.1.585A6.28,6.28,0,0,0,18.143,22.424Z" transform="translate(-18.143 -21.799)" fill="#fff"/>
  </g>
  <g id="Groupe_37" data-name="Groupe 37" transform="translate(31.307 34.106)" opacity="0.4">
    <path id="Tracé_72" data-name="Tracé 72" d="M19.965,21.755l0-.005,0,.006Z" transform="translate(-19.965 -21.75)" fill="#fff"/>
  </g>
  <g id="Groupe_38" data-name="Groupe 38" transform="translate(37.601 29.882)" opacity="0.4">
    <path id="Tracé_73" data-name="Tracé 73" d="M24.943,19.056a3.5,3.5,0,0,1,.434.243,2.928,2.928,0,0,1-.958,1.1h0c-.184-.177-.339-.31-.44-.393A3.152,3.152,0,0,0,24.943,19.056Z" transform="translate(-23.978 -19.056)" fill="#fff"/>
  </g>
  <path id="Tracé_74" data-name="Tracé 74" d="M26.637,25.717a.319.319,0,0,1-.066-.007.326.326,0,0,1-.259-.3c-.13-2.421-2.51-4.252-2.534-4.27a.326.326,0,0,1,.038-.544,3.416,3.416,0,0,0,1.542-2.771.326.326,0,0,1,.573-.212,6.994,6.994,0,0,1,1.679,5.33,7.958,7.958,0,0,1-.681,2.6A.326.326,0,0,1,26.637,25.717Zm-2.116-4.805a7.785,7.785,0,0,1,2.212,3.234,7.777,7.777,0,0,0,.229-1.289,6.251,6.251,0,0,0-1.057-4.213A3.827,3.827,0,0,1,24.521,20.912Z" transform="translate(13.435 9.941)" fill="#000072"/>
  <path id="Tracé_75" data-name="Tracé 75" d="M26.9,21.355a.325.325,0,0,1-.268-.141,5.971,5.971,0,0,0-2.07-1.827.326.326,0,0,1,.255-.6,6.537,6.537,0,0,1,2.351,2.056.326.326,0,0,1-.268.511Z" transform="translate(13.84 10.659)" fill="#000072"/>
  <path id="Tracé_76" data-name="Tracé 76" d="M24.633,29.855h-.145a10.4,10.4,0,0,1-4.9-.972.326.326,0,0,1-.114-.439,7.454,7.454,0,0,0,.4-5.8.326.326,0,0,1,.183-.42,13.133,13.133,0,0,0,3.45-2.228,3.9,3.9,0,0,1,1.192-.813,3.18,3.18,0,0,1,1.837.484.326.326,0,0,1-.328.563,2.566,2.566,0,0,0-1.358-.413,5,5,0,0,0-.928.682A14.514,14.514,0,0,1,20.582,22.7a7.988,7.988,0,0,1-.379,5.754,11.568,11.568,0,0,0,4.3.744c2.921.053,3.713-1.523,3.79-1.692a8.974,8.974,0,0,0,.425-3,.326.326,0,1,1,.641-.116,9.542,9.542,0,0,1-.448,3.32c0,.009-.006.018-.01.027C28.861,27.831,28,29.855,24.633,29.855Z" transform="translate(11.039 10.878)" fill="#000072"/>
  <path id="Tracé_77" data-name="Tracé 77" d="M19.782,27.814a1.922,1.922,0,0,1-1.417-.586c-.983-1-1.058-3.133-.511-4.416.834-1.957,3.632-1.121,3.751-1.085a.326.326,0,0,1-.191.623c-.03-.009-2.357-.7-2.96.717a3.939,3.939,0,0,0,.377,3.7,1.623,1.623,0,0,0,1.892.182.326.326,0,1,1,.243.6A3.182,3.182,0,0,1,19.782,27.814Z" transform="translate(9.95 12.225)" fill="#000072"/>
</svg>
