<svg xmlns="http://www.w3.org/2000/svg" width="46" height="46" viewBox="0 0 46 46">
  <g id="Groupe_41" data-name="Groupe 41" transform="translate(0.05 -0.428)">
    <rect id="Rectangle_4" data-name="Rectangle 4" width="46" height="46" transform="translate(-0.05 0.428)" fill="#fff"/>
    <g id="Groupe_40" data-name="Groupe 40" transform="translate(5.802 8.702)">
      <path id="Tracé_78" data-name="Tracé 78" d="M35.44,20.775,5.7,33.326a1.912,1.912,0,0,1-1.834-.169A1.8,1.8,0,0,1,3,31.54V6.438A1.8,1.8,0,0,1,3.869,4.82,1.912,1.912,0,0,1,5.7,4.651L35.44,17.2a1.925,1.925,0,0,1,0,3.572ZM6.862,28.644l22.882-9.655L6.862,9.334v6.758l11.586,2.9-11.586,2.9Z" transform="translate(-3 -4.493)" fill="#4e38cc"/>
    </g>
  </g>
</svg>
